<?xml version="1.0" encoding="utf-8"?>
<!-- Generator: Adobe Illustrator 16.0.0, SVG Export Plug-In . SVG Version: 6.00 Build 0)  -->
<svg version="1.2" baseProfile="tiny" id="Layer_1" xmlns="http://www.w3.org/2000/svg" xmlns:xlink="http://www.w3.org/1999/xlink"
	 x="0px" y="0px" width="220.997px" height="281.87px" viewBox="0 0 220.997 281.87" xml:space="preserve">
<path fill-rule="evenodd" d="M196.012,73.024v13.674c-0.629,18.474-4.322,36.854-10.942,54.016
	c-6.621,17.162-16.168,33.104-28.87,48.581s-28.559,30.487-46.01,43.258c-18.966-14.354-36.353-30.876-49.937-47.026
	c-13.584-16.151-23.364-31.931-30.118-48.315c-6.753-16.384-10.479-33.372-11.27-50.503c0-28.903,0-57.806,0-86.708h177.146
	C196.012,24.342,196.012,48.683,196.012,73.024"/>
<path fill-rule="evenodd" fill="#97D8FF" d="M46.678,74.45c9.968-2.367,20.343-10.545,30.936-9.906
	c10.593,0.639,21.405,10.096,32.233,9.882s21.673-10.097,32.65-10.583s22.089,8.424,31.363,10.914s16.712-1.441,20.734-7.748v-11.88
	c-3.803,6.452-11.232,10.596-20.419,8.125c-9.187-2.47-20.129-11.555-31.223-11.194c-11.092,0.36-22.336,10.167-33.143,10.349
	c-10.808,0.182-21.18-9.261-31.699-9.916c-10.519-0.655-21.186,7.477-31.282,9.867c-10.096,2.39-19.622-0.962-26.547-7.231v11.88
	C27.151,73.372,36.71,76.816,46.678,74.45"/>
<path fill-rule="evenodd" fill="#7F7F7F" d="M46.678,61.273c9.968-2.367,20.343-10.545,30.936-9.906s21.405,10.096,32.233,9.882
	s21.673-10.097,32.65-10.583s22.089,8.424,31.363,10.914c9.274,2.489,16.712-1.441,20.734-7.748v-8.424
	c-3.803,6.452-11.232,10.596-20.419,8.125c-9.187-2.47-20.129-11.555-31.223-11.194c-11.092,0.361-22.336,10.167-33.143,10.349
	c-10.808,0.182-21.18-9.261-31.699-9.916c-10.519-0.655-21.186,7.477-31.282,9.867c-10.096,2.389-19.622-0.963-26.547-7.232v8.424
	C27.151,60.196,36.71,63.641,46.678,61.273"/>
<path fill-rule="evenodd" fill="#97D8FF" d="M46.678,51.625c9.968-2.367,20.343-10.545,30.936-9.906s21.405,10.096,32.233,9.882
	s21.673-10.097,32.65-10.583s22.089,8.425,31.363,10.915s16.712-1.441,20.734-7.748V1.417H20.282v42.769
	C27.151,50.548,36.71,53.992,46.678,51.625"/>
<path fill-rule="evenodd" fill="#7F7F7F" d="M46.678,84.242c9.968-2.367,20.343-10.545,30.936-9.906
	c10.593,0.639,21.405,10.096,32.233,9.882s21.673-10.097,32.65-10.583c10.978-0.487,22.089,8.424,31.363,10.914
	s16.712-1.441,20.734-7.748v-8.424c-3.803,6.452-11.232,10.596-20.419,8.125c-9.187-2.47-20.129-11.555-31.223-11.194
	c-11.092,0.36-22.336,10.167-33.143,10.349c-10.808,0.182-21.18-9.261-31.699-9.916c-10.519-0.655-21.186,7.477-31.282,9.867
	s-19.622-0.962-26.547-7.232v8.424C27.151,83.164,36.71,86.608,46.678,84.242"/>
<path fill-rule="evenodd" fill="#007FFF" d="M35.292,145.409c8.701,18.095,21.042,34.063,33.945,48.197
	c12.903,14.136,26.366,26.439,40.974,37.203c12.991-9.111,24.856-19.789,36.874-33.107c12.017-13.318,24.186-29.275,32.801-48.199
	c8.616-18.925,13.678-40.817,14.71-62.838v-8.424c-3.803,6.452-11.232,10.596-20.419,8.125c-9.187-2.47-20.129-11.555-31.223-11.194
	c-11.092,0.361-22.336,10.167-33.143,10.349c-10.808,0.182-21.18-9.26-31.699-9.916c-10.519-0.655-21.186,7.477-31.282,9.867
	c-10.096,2.39-19.622-0.963-26.547-7.232v8.424C21.529,107.093,26.591,127.315,35.292,145.409"/>
<path fill-rule="evenodd" fill="#FFFFFF" d="M65.459,150.55c0.136,0.073,0.152,0.178,0.111,0.289
	c-0.966,2.055-1.844,4.141-2.898,6.165c-0.761-0.135-1.473-0.309-2.286-0.697c-0.023-0.054-0.026-0.121,0.004-0.183
	c1.055-2.111,2.006-4.254,3.165-6.334C64.195,149.929,64.825,150.296,65.459,150.55"/>
<path fill-rule="evenodd" fill="#FFFFFF" d="M66.441,151.161c0.058-0.107,0.144-0.131,0.228-0.121
	c1.344,0.224,2.661,0.344,4.033,0.672c-0.001,2.182-0.071,4.355-0.299,6.584c-0.047,0.039-0.11,0.057-0.169,0.047
	c-2.201-0.336-4.373-0.566-6.603-1.011c-0.051-0.065-0.063-0.147-0.026-0.229L66.441,151.161"/>
<path fill-rule="evenodd" fill="#FFFFFF" d="M72.046,151.812c-0.014-0.104,0.125-0.23,0.216-0.217
	c1.074,0.008,2.136-0.023,3.222,0.021c0.069,0.035,0.104,0.094,0.117,0.15c0.428,2.033,0.89,4.065,1.283,6.102
	c-0.004,0.056-0.089,0.168-0.195,0.17c-1.524,0.088-3.024,0.299-4.573,0.268c-0.046-0.043-0.069-0.104-0.069-0.158V151.812"/>
<path fill-rule="evenodd" fill="#FFFFFF" d="M77.037,151.349c-0.025-0.07,0.03-0.226,0.151-0.254c1.001-0.27,1.994-0.64,3.002-0.809
	c0.891,1.951,1.727,3.96,2.392,5.949c-1.35,0.537-2.764,0.959-4.164,1.251c-0.059-0.036-0.09-0.089-0.101-0.142L77.037,151.349"/>
<path fill-rule="evenodd" fill="#FFFFFF" d="M81.861,150.021c-0.017-0.078-0.048-0.163,0.109-0.268
	c0.813-0.371,1.625-0.873,2.439-1.113c0.042,0.02,0.079,0.029,0.124,0.115c0.833,1.908,1.705,3.821,2.501,5.725
	c0.009,0.07-0.071,0.189-0.147,0.205c-0.987,0.307-1.966,0.728-2.96,0.922C83.134,153.778,82.549,151.882,81.861,150.021"/>
<path fill-rule="evenodd" fill="#FFFFFF" d="M73.352,160.329c3.715-0.318,6.877-1.189,10.466-2.362
	c0.951-0.308,1.936-0.634,2.47-0.821c0.939-0.33,0.667-0.297,0.862-0.261c0.096,0.051,0.119,0.12,0.124,0.19l0.206,7.529
	c0.001,0.063,0.003,0.122-0.197,0.283c-0.201,0.162-0.585,0.421-1.04,0.697c-0.455,0.275-0.979,0.568-1.549,0.834
	c-0.57,0.267-1.188,0.506-1.91,0.735c-0.723,0.23-1.551,0.451-2.537,0.659c-0.986,0.207-2.129,0.402-3.366,0.569
	c-1.236,0.167-2.566,0.307-3.693,0.389s-2.054,0.105-2.818,0.091c-1.529-0.037-2.426-0.193-3.544-0.535
	c-0.559-0.174-1.167-0.405-1.975-0.787c-0.808-0.383-1.814-0.917-2.585-1.327c-0.772-0.41-1.309-0.695-1.585-0.873
	c-0.276-0.177-0.267-0.241-0.267-0.308c0.009-2.204-0.03-4.389,0.027-6.611c0.09-0.111,0.11-0.117,0.211-0.107
	c0.155,0.04,0.9,0.349,1.615,0.586C66.083,160.152,69.457,160.603,73.352,160.329"/>
<path fill-rule="evenodd" fill="#FFFFFF" d="M152.745,149.794c0.08-0.023,0.169-0.06,0.28,0.104
	c1.022,2.105,2.088,4.217,3.067,6.317c0.012,0.071-0.073,0.198-0.155,0.212c-0.716,0.192-1.426,0.48-2.148,0.577
	c-0.037-0.019-0.07-0.035-0.107-0.106c-0.937-2.047-1.908-4.1-2.811-6.143c0.008-0.064-0.012-0.119,0.131-0.205L152.745,149.794"/>
<path fill-rule="evenodd" fill="#FFFFFF" d="M152.855,157.104c0.034,0.083,0.062,0.239-0.164,0.307
	c-2.185,0.31-4.365,0.651-6.554,0.927c-0.052-0.007-0.158-0.09-0.157-0.198c-0.074-2.142-0.245-4.267-0.222-6.427
	c1.38-0.305,2.78-0.545,4.205-0.623C150.957,153.074,151.892,155.099,152.855,157.104"/>
<path fill-rule="evenodd" fill="#FFFFFF" d="M144.415,158.147c0.016,0.102-0.133,0.238-0.232,0.215
	c-1.499-0.117-2.985-0.198-4.497-0.35c-0.1-0.061-0.123-0.148-0.108-0.235c0.442-2.033,0.839-4.047,1.324-6.099
	c0.044-0.057,0.109-0.084,0.171-0.084c1.093,0.021,2.16-0.07,3.279,0.064C144.485,153.803,144.394,155.983,144.415,158.147"/>
<path fill-rule="evenodd" fill="#FFFFFF" d="M138.145,157.345c0.001,0.074-0.147,0.213-0.273,0.162
	c-1.313-0.4-2.607-0.761-3.938-1.2c-0.074-0.065-0.094-0.156-0.06-0.245c0.778-1.91,1.522-3.804,2.333-5.729
	c0.062-0.063,0.141-0.082,0.219-0.061c0.99,0.307,1.947,0.496,2.973,0.92C139.087,153.237,138.563,155.294,138.145,157.345"/>
<path fill-rule="evenodd" fill="#FFFFFF" d="M132.645,155.485c-0.008,0.059-0.146,0.184-0.272,0.132
	c-0.958-0.325-1.897-0.61-2.874-0.978c-0.07-0.066-0.09-0.158-0.053-0.247c0.869-1.917,1.625-3.872,2.606-5.753
	c0.855,0.281,1.728,0.723,2.545,1.227C134.05,151.741,133.295,153.612,132.645,155.485"/>
<path fill-rule="evenodd" fill="#FFFFFF" d="M142.38,160.304c3.649,0.08,6.839-0.455,10.343-1.252
	c0.92-0.205,1.875-0.426,2.389-0.555c0.941-0.24,0.611-0.215,0.814-0.18c0.097,0.053,0.119,0.123,0.122,0.195v6.527
	c0,0.063-0.002,0.124-0.245,0.324c-0.594,0.482-1.852,1.314-2.9,1.824c-4.725,2.217-9.147,2.053-14.158,1.158
	c-2.015-0.408-3.872-0.985-5.887-1.801c-1.067-0.434-2.2-0.949-2.853-1.257c-0.651-0.309-0.822-0.411-0.918-0.491
	c-0.095-0.081-0.107-0.14-0.105-0.199c0.078-2.539,0.107-5.059,0.235-7.617c0.061-0.086,0.119-0.113,0.197-0.104
	c0.1,0.009,0.844,0.407,1.555,0.725c3.329,1.462,6.238,2.245,9.635,2.593C141.2,160.251,141.797,160.287,142.38,160.304"/>
<path fill-rule="evenodd" fill="#FFFFFF" d="M101.541,163.013c0.409,0.035,0.771,0.029,1.25,0.729
	c0.285,0.68,0.664,1.508-0.535,2.523c-0.564,0.391-1.771,0.166-2.085-0.791c-0.243-0.608-0.254-1.913,0.88-2.377
	C101.207,163.041,101.374,163.013,101.541,163.013"/>
<path fill-rule="evenodd" fill="#FFFFFF" d="M113.829,163.013c0.408,0.035,0.771,0.029,1.25,0.729
	c0.285,0.68,0.663,1.508-0.535,2.523c-0.565,0.391-1.771,0.166-2.085-0.791c-0.244-0.608-0.254-1.913,0.88-2.377
	C113.494,163.041,113.662,163.013,113.829,163.013"/>
<path fill-rule="evenodd" fill="#FFFFFF" d="M109.441,151.716c-0.036,0.408-0.029,0.771-0.729,1.25
	c-0.68,0.285-1.507,0.664-2.522-0.535c-0.391-0.564-0.166-1.771,0.79-2.086c0.608-0.243,1.913-0.254,2.377,0.881
	C109.413,151.38,109.441,151.548,109.441,151.716"/>
<path fill-rule="evenodd" fill="#FFFFFF" d="M112.276,155.927c-0.683,0.244-0.665,0.095-1.149-0.177
	c-0.811-0.843-1.083-2.021,0.282-3.007c0.569-0.24,1.386-0.232,1.9,0.688c0.255,0.697,0.543,1.521-0.58,2.426
	C112.622,155.887,112.472,155.876,112.276,155.927"/>
<path fill-rule="evenodd" fill="#FFFFFF" d="M112.92,156.686c0.616,0.055,1.164,0.045,1.886,1.099
	c0.468,0.893,0.674,2.07-0.229,3.314c-0.924,0.947-2.072,1.21-3.312,0c-0.722-1.039-1.115-2.391,0.273-3.914
	C111.941,156.841,112.437,156.687,112.92,156.686"/>
<path fill-rule="evenodd" fill="#FFFFFF" d="M103.287,155.921c-0.781,0.072-1.187-0.851-1.208-1.451
	c-0.049-0.554,0.181-1.666,1.31-1.844c0.713-0.203,1.674,0.711,1.665,1.373c0.131,0.612-0.146,1.917-1.318,2.043
	C103.606,156.022,103.483,155.954,103.287,155.921"/>
<path fill-rule="evenodd" fill="#FFFFFF" d="M102.668,156.686c0.616,0.055,1.164,0.045,1.885,1.099
	c0.467,0.893,0.674,2.07-0.229,3.314c-0.924,0.947-2.072,1.21-3.312,0c-0.722-1.039-1.115-2.391,0.272-3.914
	C101.689,156.841,102.185,156.687,102.668,156.686"/>
<path fill-rule="evenodd" fill="#FFFFFF" d="M111.72,135.324c-0.278,0.248,0.128,0.856,0.529,0.547
	c0.134-0.151,1.187-1.157,1.837-1.572c0.752-0.548,0.896-0.755,1.544-1.055c0.546-0.162,0.803,0.071,1.249,0.341
	c0.454,0.305,0.766,0.545,0.977,0.687c0.708,0.534,1.606,0.877,2.289,0.715c0.394-0.06,0.734-0.197,1.202-0.408
	c0.279-0.128,0.606-0.29,0.822-0.396c0.767-0.376,0.537-0.235,0.933-0.503c0.658-0.486,1.199-1.172,1.513-0.847
	c0.187,0.048,0.941,0.669,1.218,0.857c1.812,1.212,3.041,0.573,4.997-0.084c0.279-0.116,0.527-0.237,0.704-0.333
	c0.403-0.281,0.668-0.273,0.675,0.004l-1.113,14.362c0.097,0.051,0.336,0.195,0.206,0.389l-4.336,6.443
	c-0.021,3.658,0.068,7.291-0.063,10.975c-3.545,0.164-7.116,0.146-10.691,0.162c-0.254-0.47,0.073-0.945-0.139-1.596
	c-0.156-0.567-0.377-1.062-1.367-1.768c0.244-0.404,1.022-1.134,1.152-1.844c0.34-1.355,0.303-3.291-1.919-4.46
	c0.441-0.958,0.877-2.556-0.675-3.78c-0.823-0.481-1.498-0.559-2.62,0.017c-0.125-0.013-0.475-0.31-0.375-0.516
	c0.063-0.495-0.482-1.822-1.625-2.131c-0.975-0.243-2.206-0.406-3.22,1.146c-0.243,0.41-0.167,0.809-0.343,1.436
	c-0.477,0.102-0.984-0.418-1.577-0.326c-0.92-0.139-2.324,1.236-2.248,2.317c-0.014,0.554-0.036,0.919,0.398,1.733
	c-0.094,0.363-1.486,0.913-1.754,1.857c-0.467,1.283-0.667,2.584,0.677,4.153c0.709,0.657-0.456,0.516-0.834,1.228
	c-0.548,0.803-0.622,1.372-0.451,2.583c-0.052,0.09-0.122,0.112-0.192,0.114c-3.326-0.061-6.626-0.01-9.977-0.181
	c-0.131-3.956-0.042-7.946-0.062-11.92c-1.235-1.913-2.559-3.834-3.706-5.741c-0.354-5.355-0.787-10.699-1.068-16.069
	c0.531-0.267,0.872,0.466,1.538,0.77c1.685,0.955,4.278,2.012,6.008,0.814c0.689-0.473,0.754-0.592,1.325-0.939
	c0.707-0.393,0.924,0.418,1.493,0.745c0.349,0.271,0.837,0.468,1.266,0.689c0.257,0.116,1.486,0.767,2.126,0.715
	c1.195,0.13,2.227-1.223,3.67-1.807c0.549-0.083,0.67,0.094,1.324,0.539c0.226,0.17,0.514,0.4,0.864,0.648
	c0.276,0.193,0.566,0.417,0.975,0.786c0.234,0.214,0.462,0.448,0.596,0.575c0.355,0.312,0.367,0.204,0.578,0.125
	c0.193-0.158,0.229-0.356,0.067-0.571c-0.779-0.666-1.563-1.327-1.985-1.676c-0.422-0.349-0.483-0.387-0.58-0.459
	c-0.194-0.146-0.851-0.642-1.446-0.754c-0.338-0.059-0.642,0.032-1,0.214c-0.548,0.283-1.126,0.685-1.419,0.91
	c-0.604,0.471-1.628,1.021-2.635,0.438c-0.642-0.28-1.147-0.549-1.461-0.698c-0.946-0.449-1.712-1.708-2.533-1.206
	c-0.312,0.128-0.694,0.386-0.919,0.552c-0.521,0.407-0.833,0.702-1.507,0.894c-1.313,0.208-3.708-0.409-5.839-2.177
	c-0.157-0.089-0.47,0.161-0.529-0.202c0.021-2.982-0.069-5.939,0.062-8.947c1.489-0.132,2.996-0.137,4.522-0.063
	c0.868,1.52,1.694,3.069,2.542,4.604c1.012-1.552,1.938-3.124,3.035-4.657c1.095-0.006,2.174-0.063,3.291,0.046
	c0.868,1.523,1.696,3.074,2.545,4.611c1.009-1.547,1.931-3.114,3.026-4.642c1.1-0.006,2.186-0.063,3.308,0.046
	c0.865,1.518,1.691,3.064,2.536,4.596c1.006-1.542,1.926-3.104,3.017-4.627c0.863-0.006,1.713-0.063,2.598,0.045
	c0.863,1.513,1.687,3.055,2.529,4.583c1.003-1.538,1.92-3.096,3.008-4.614c1.281-0.005,2.548-0.062,3.851,0.047
	c0.86,1.508,1.681,3.045,2.521,4.567c0.999-1.533,1.913-3.085,2.998-4.599c1.123,0,2.222-0.082,3.376,0.063
	c0.042,0.045,0.062,0.106,0.057,0.163l-0.758,9.776c-0.151,0.359-1.115,0.79-1.887,1.149c-1.092,0.441-3.064,1.053-4.021,0.243
	c-0.982-0.701-1.066-0.924-1.875-1.165c-0.655-0.25-1.424,0.772-1.987,1.116c-0.282,0.18-0.601,0.303-0.907,0.46
	c-0.186,0.073-1.584,0.874-2.209,0.64c-0.313-0.008-1.26-0.638-1.673-0.965c-0.469-0.343-1.654-1.078-2.181-0.805
	c-0.309,0.067-0.965,0.448-1.678,1.018c-0.449,0.328-0.386,0.254-0.816,0.619c-0.283,0.242-0.712,0.632-0.964,0.861
	C111.873,135.186,111.797,135.254,111.72,135.324 M93.957,137.755c0.327-0.562,0.528-1.4-0.37-2.082
	c-0.622-0.42-1.489,0.658-1.275,1.483c-0.004,0.28,0.322,0.674,0.482,0.956c-0.021,0.87,0.07,1.714-0.063,2.609
	c-0.564,0.107-1.142,0.131-1.749-0.016c-0.554-0.466-1.496-0.885-2.306,0.292c-0.345,0.658,0.884,1.492,1.759,1.118
	c0.24-0.046,0.417-0.275,0.773-0.492c0.507,0.021,0.989-0.07,1.522,0.063c0.091,0.333,0.199,0.813-0.193,1.087
	c-0.267,0.547-0.633,1.399,0.468,2.103c0.658,0.345,1.492-0.884,1.117-1.759c-0.046-0.24-0.276-0.417-0.492-0.773
	c0.045-0.231-0.16-0.659,0.216-0.72c0.565,0.024,1.101-0.083,1.696,0.074c0.565,0.595,1.506,0.957,2.372-0.215
	c0.331-0.679-0.857-1.423-1.676-1.149c-0.241,0.037-0.445,0.243-0.801,0.452c-0.581-0.021-1.137,0.07-1.744-0.063
	c-0.104-0.89-0.14-1.799,0.025-2.726C93.836,137.909,93.876,137.864,93.957,137.755 M123.477,138.337
	c0.326-0.563,0.527-1.4-0.37-2.082c-0.621-0.42-1.488,0.657-1.274,1.483c-0.005,0.28,0.322,0.674,0.482,0.956
	c-0.021,0.87,0.07,1.714-0.063,2.609c-0.564,0.107-1.142,0.131-1.749-0.017c-0.554-0.465-1.496-0.884-2.305,0.292
	c-0.346,0.658,0.883,1.492,1.758,1.117c0.24-0.046,0.417-0.275,0.773-0.492c0.508,0.021,0.989-0.07,1.522,0.064
	c0.091,0.332,0.199,0.813-0.193,1.086c-0.267,0.547-0.632,1.398,0.469,2.102c0.657,0.346,1.491-0.883,1.117-1.758
	c-0.046-0.241-0.276-0.417-0.492-0.773c0.045-0.232-0.159-0.659,0.216-0.721c0.565,0.025,1.101-0.082,1.696,0.074
	c0.564,0.595,1.506,0.957,2.372-0.214c0.33-0.68-0.857-1.424-1.677-1.149c-0.241,0.037-0.444,0.243-0.801,0.452
	c-0.581-0.021-1.137,0.07-1.743-0.063c-0.104-0.89-0.141-1.799,0.024-2.726C123.355,138.49,123.396,138.446,123.477,138.337"/>
<path fill-rule="evenodd" fill="#FFFFFF" d="M66.376,118.692c-1.066-1.359-2.252-2.729-3.199-4.077
	c0.042-3.262-0.013-6.504,0.125-9.787c0.153-0.155,0.346-0.023,0.522,0.023c0.827,0.528,1.621,0.989,2.481,1.586
	c0.118,0.734,0.159,1.496,0.239,2.245l2.301,0.816c0.047-0.679-0.032-1.326,0.141-2.036c0.047-0.041,0.109-0.058,0.167-0.05
	c1.658,0.222,3.292,0.348,4.975,0.666c0.133,0.794,0.082,1.619,0.123,2.429h2.085c0.021-0.9-0.07-1.774,0.063-2.7
	c1.188-0.116,2.393-0.104,3.62-0.008c0.211,0.883,0.228,1.806,0.341,2.709l2.228-0.074c0.066-1,0.039-1.98,0.198-3.001
	c1.118-0.565,2.261-1.225,3.392-1.636c0.046,0.011,0.145,0.09,0.142,0.203c-0.011,2.915,0.036,5.821-0.032,8.746l-3.822,6.202
	l2.025,26.111c0.003,0.048,0.006,0.097-0.056,0.155c-0.174,0.147-0.966,0.548-1.737,0.893c-3.852,1.546-8.754,2.345-13.408,1.53
	c-1.086-0.205-2.178-0.557-3.317-1.009c-0.583-0.231-1.167-0.483-1.484-0.632c-0.58-0.272-0.382-0.256-0.428-0.369L66.376,118.692
	 M71.035,117.925l-0.521-2.159h-3.02l-0.595,2.159H71.035 M76.997,117.925l-0.521-2.159h-3.02l-0.595,2.159H76.997 M82.668,117.78
	l-0.521-2.159h-3.02l-0.596,2.159H82.668"/>
<path fill-rule="evenodd" fill="#FFFFFF" d="M133.995,120.948c-1.285-2.105-2.641-4.216-3.854-6.316
	c0.006-2.906-0.02-5.803,0.018-8.717c0.075-0.138,0.181-0.155,0.295-0.107c1.088,0.563,2.204,1.038,3.264,1.689
	c0.075,0.975,0.104,1.958,0.156,2.938l2.228,0.074c0.113-0.903,0.125-1.78,0.341-2.709c1.191-0.096,2.388-0.107,3.62,0.008
	c0.134,0.881,0.042,1.8,0.063,2.7h2.085c0.041-0.81-0.011-1.599,0.124-2.429c1.694-0.297,3.404-0.534,5.141-0.616
	c0.171,0.655,0.094,1.357,0.141,2.036l2.301-0.816c0.08-0.749,0.118-1.476,0.24-2.245c0.817-0.566,1.698-1.1,2.543-1.613
	c0.159-0.042,0.498-0.15,0.516,0.146c0.008,3.26,0.101,6.502,0.022,9.78l-3.151,3.94c0.757,9.697,1.613,19.407,2.271,29.09
	c-0.114,0.122-0.905,0.5-1.655,0.82c-4.051,1.623-8.407,1.683-12.536,0.754c-0.669-0.156-1.379-0.35-2.16-0.604
	s-1.634-0.566-2.292-0.813c-0.659-0.247-1.122-0.429-1.377-0.544c-0.461-0.211-0.334-0.238-0.365-0.344L133.995,120.948
	 M149.563,117.925l-0.596-2.159h-3.02l-0.521,2.159H149.563 M143.6,117.925l-0.595-2.159h-3.021l-0.521,2.159H143.6 M137.929,117.78
	l-0.596-2.159h-3.02l-0.521,2.159H137.929"/>
<path fill-rule="evenodd" d="M19.753,276.866c-1.647,0.059-3.297,0.221-4.379,0.412c-1.797,0.347-2.095,0.655-2.679,0.814
	c-0.234,0.094-0.534,0.239-0.902,0.426c-0.369,0.187-0.808,0.414-1.375,0.574c-0.567,0.161-1.264,0.256-2.088,0.004
	s-1.775-0.85-2.381-1.262c-0.606-0.41-0.865-0.635-1.189-0.871c-0.605-0.387-1.913-1.461-3.104-2.73
	c-0.595-0.622-1.08-1.182-1.537-1.764c3.81-1.252,7.908-1.734,11.37-1.33c3.461,0.404,6.285,1.695,8.42,2.787
	c2.135,1.09,3.58,1.98,4.904,3.033L19.753,276.866"/>
<path fill-rule="evenodd" fill="#FFFFFF" d="M5.091,275.449c1.399,0.995,2.667,2.169,4.032,2.376
	c1.045,0.159,2.202-0.801,3.528-1.224c1.008-0.321,1.997-0.698,3.024-0.864c2.02-0.326,4.104-0.288,4.104-0.288
	s-2.031-1.288-4.248-2.016c-3.026-0.976-6.262-1.195-9.432-0.864c-1.745,0.154-3.456,0.648-3.456,0.648S3.748,274.495,5.091,275.449
	"/>
<path fill-rule="evenodd" d="M201.244,272.835l-5.06,0.093c3.764-2.83,8.177-4.891,12.048-5.624c3.87-0.732,7.197-0.138,9.22,0.257
	c2.023,0.394,2.742,0.587,3.427,0.878c-1.359,1.451-2.768,2.863-3.635,3.662c-0.867,0.8-1.193,0.986-1.467,1.177
	c-0.272,0.191-0.491,0.386-1.024,0.735c-0.998,0.693-2.862,1.602-4.256,1.024c-0.638-0.194-1.219-0.517-1.668-0.735
	c-0.868-0.424-1.269-0.467-1.808-0.678c-0.26-0.103-0.548-0.244-1.516-0.383c-0.967-0.139-2.613-0.272-3.438-0.34
	C201.245,272.834,201.244,272.834,201.244,272.835"/>
<path fill-rule="evenodd" fill="#FFFFFF" d="M215.906,271.417c-1.399,0.995-2.667,2.168-4.031,2.376
	c-1.045,0.159-2.202-0.801-3.528-1.224c-1.008-0.321-1.997-0.698-3.024-0.863c-2.02-0.327-4.104-0.289-4.104-0.289
	s2.031-1.289,4.248-2.016c3.026-0.977,6.262-1.195,9.432-0.864c1.745,0.154,3.456,0.648,3.456,0.648
	S217.249,270.462,215.906,271.417"/>
<path fill-rule="evenodd" d="M6.482,258.248c0.658-1.595,1.089-2.97,1.518-4.29c0.429-1.321,0.855-2.588,1.175-3.451
	c0.791-2.021,0.796-1.924,1.157-2.867c0.204-0.506,0.506-1.227,0.86-1.803s0.758-1.007,1.245-1.282s1.056-0.396,1.783-0.399
	c0.727-0.004,1.611,0.108,3.003,0.662c1.392,0.555,3.29,1.551,5.071,2.581s3.445,2.095,4.631,3.041
	c2.488,2.108,2.925,3.101,2.944,4.491c-0.015,0.77-0.224,1.747-0.373,2.358c-0.148,0.61-0.237,0.854-0.369,1.331
	c-0.27,1.037-0.822,3.065-1.636,4.85c-0.431,0.959-0.932,1.881-1.372,2.459c-0.439,0.578-0.817,0.811-1.093,0.994
	c-0.521,0.348-0.653,0.501-0.7,0.685c-0.012,0.117-0.411,0.824-0.114,1.431c0.331,0.545,1.566,0.892,2.462,1.305
	c0.667,0.304,1.346,0.605,2.11,0.815c0.32,0.09,0.545,0.135,1.067,0.335c0.523,0.201,1.344,0.559,2.197,1.18
	c0.853,0.623,1.737,1.512,2.371,2.318c1.181,1.528,1.563,2.764,1.247,4.006c-0.148,0.586-0.444,1.179-0.79,1.664
	c-0.656,0.937-1.498,1.413-2.241,1.125c-0.35-0.119-0.674-0.359-0.884-0.559c-0.211-0.201-0.309-0.361-1.069-0.836
	c-0.76-0.476-2.183-1.264-3.338-1.876s-2.043-1.048-2.89-1.48c-0.846-0.433-1.649-0.862-3.222-1.582
	c-1.573-0.72-3.914-1.729-5.842-2.385c-1.928-0.656-3.442-0.958-4.902-1.028s-2.865,0.089-4.211,0.391s-2.634,0.744-3.298,1.006
	c-0.665,0.262-0.706,0.342-0.892,0.428c-0.326,0.159-1.115,0.311-1.718-0.32c-0.25-0.247-0.44-0.572-0.345-1.196
	s0.478-1.548,1.197-3.076s1.776-3.661,2.747-5.637C4.94,261.66,5.825,259.844,6.482,258.248"/>
<path fill-rule="evenodd" fill="#FFFFFF" d="M1.419,272.569c-0.064,0.204,1.093-0.792,2.448-1.08
	c2.254-0.479,4.495-1.012,6.696-0.864c6.165,0.499,12.11,3.964,18,6.912c1.143,0.574,2.224,1.265,3.312,1.944
	c0.645,0.402,1.099,1.097,1.296,0.936c0.799-0.653,1.433-1.854,1.08-2.88c-0.52-1.513-1.918-2.871-3.456-4.032
	c-1.051-0.793-2.586-0.902-3.889-1.512c-1.487-0.695-3.098-1.127-3.815-2.088c-0.578-0.773-0.45-1.965,0-3.023
	c0.356-0.841,1.697-1.273,2.231-2.232c1.021-1.832,1.771-3.842,2.304-5.904c0.499-1.931,1.286-3.791,0.504-4.968
	c-1.563-2.354-4.592-4.067-7.632-5.76c-2.525-1.405-5.074-2.764-6.984-2.376c-1.211,0.246-1.738,2.359-2.592,4.32
	c-1.2,2.754-1.848,5.768-3.024,8.567C5.544,264.131,2.4,269.412,1.419,272.569"/>
<path fill-rule="evenodd" d="M220.68,267.321c0.407,1.093,0.356,1.453,0.215,1.766c-0.451,1.055-1.721,1.107-2.493,0.452
	c-0.296-0.196-0.624-0.435-1.644-0.724c-1.02-0.288-2.73-0.629-4.217-0.76s-2.748-0.052-4.307,0.271
	c-1.559,0.322-3.414,0.889-5.617,1.813c-2.205,0.924-4.758,2.205-6.424,3.047c-1.668,0.843-2.449,1.246-2.953,1.502
	c-0.506,0.254-0.733,0.359-1.363,0.744s-1.662,1.049-2.221,1.449c-0.56,0.401-0.646,0.538-0.871,0.676
	c-0.525,0.317-1.345,0.449-2.04-0.231c-0.85-0.767-1.573-2.114-1.516-3.251c-0.004-1.241,0.874-2.698,2.298-4.179
	c0.734-0.757,1.6-1.483,2.435-1.946c0.835-0.462,1.64-0.658,2.198-0.813c1.178-0.328,1.318-0.469,1.896-0.715
	c0.295-0.129,0.676-0.282,1.117-0.464s0.943-0.392,1.258-0.624c0.313-0.232,0.44-0.486,0.446-0.799
	c0.006-0.313-0.109-0.686-0.182-0.893s-0.102-0.248-0.157-0.304c-0.228-0.224-0.56-0.433-1.049-0.826
	c-0.331-0.264-0.74-0.608-1.254-1.539c-0.515-0.931-1.135-2.447-1.54-3.597c-0.711-2.072-0.833-2.925-1.158-3.953
	c-0.266-0.959-0.639-2.33-0.254-3.608c0.204-0.654,0.625-1.276,1.338-2.043s1.717-1.68,3.387-2.794s4.006-2.43,5.735-3.285
	c1.729-0.855,2.852-1.25,3.779-1.438c0.929-0.188,1.662-0.168,2.256-0.033s1.048,0.385,1.473,0.857
	c0.424,0.474,0.818,1.17,1.142,1.875c0.323,0.704,0.574,1.416,0.8,1.979c0.227,0.562,0.428,0.975,0.758,1.869
	c0.331,0.895,0.791,2.272,1.082,3.217c0.29,0.945,0.412,1.457,1.014,2.933s1.685,3.915,2.514,5.679
	c0.83,1.764,1.407,2.854,2.128,4.312S220.273,266.228,220.68,267.321"/>
<path fill-rule="evenodd" fill="#FFFFFF" d="M219.578,268.537c0.064,0.204-1.093-0.792-2.447-1.079
	c-2.255-0.48-4.495-1.012-6.696-0.865c-6.165,0.499-12.11,3.965-18,6.912c-1.143,0.574-2.224,1.265-3.312,1.944
	c-0.646,0.403-1.1,1.097-1.297,0.937c-0.799-0.654-1.433-1.854-1.08-2.881c0.521-1.513,1.919-2.871,3.456-4.031
	c1.051-0.793,2.586-0.903,3.889-1.512c1.487-0.695,3.099-1.127,3.815-2.089c0.578-0.773,0.45-1.965,0-3.023
	c-0.356-0.841-1.697-1.273-2.231-2.232c-1.021-1.832-1.771-3.842-2.305-5.903c-0.498-1.932-1.285-3.792-0.504-4.969
	c1.564-2.354,4.593-4.067,7.632-5.76c2.525-1.405,5.074-2.764,6.984-2.376c1.211,0.246,1.738,2.36,2.592,4.319
	c1.2,2.755,1.848,5.77,3.024,8.568C215.453,260.099,218.597,265.38,219.578,268.537"/>
<path fill-rule="evenodd" d="M26.934,266.541c1.353-0.038,3.511-0.322,5.038,0.357c0.668,0.278,1.343,0.661,1.761,0.878
	c0.634,0.389,1.745,0.512,2.749,1.867c0.603,1.046,0.631,1.898,0.598,3.012c-0.021,0.487-0.074,1.041-0.145,1.452
	c-0.196,0.874-0.272,1.288-1.114,2.025c-0.801,0.476-1.501,0.732-2.521-0.417c-0.325-0.442-0.673-0.735-1.168-1.192
	c-0.292-0.276-0.891-0.835-1.482-1.299c-0.478-0.415-1.141-0.622-1.874-0.798c-0.278-0.071-0.421-0.115-0.537-0.152
	c-0.134-0.058-0.769-0.196-1.358-0.313c-0.625-0.144-1.381-0.216-2.271-0.855c-1.252-1.096-1.631-2.381-0.799-3.824
	c0.743-0.871,1.344-0.773,2.397-0.748C26.445,266.544,26.622,266.551,26.934,266.541"/>
<path fill-rule="evenodd" fill="#FFFFFF" d="M26.834,267.962c1.276-0.033,2.547-0.197,3.744,0c0.829,0.136,1.592,0.592,2.376,1.008
	c0.947,0.502,1.998,0.808,2.376,1.512c0.473,0.879,0.367,2.102,0.216,3.312c-0.081,0.647-0.405,1.234-0.792,1.296
	c-0.225,0.036-0.528-0.582-1.008-1.008c-0.935-0.829-1.791-1.745-2.808-2.375c-0.671-0.416-1.508-0.541-2.304-0.793
	c-1.165-0.367-2.443-0.382-3.168-0.936c-0.631-0.482-0.843-1.373-0.504-1.872C25.159,267.815,26,267.982,26.834,267.962"/>
<path fill-rule="evenodd" d="M197.219,263.294c0.613,1.103,0.736,2.406-0.894,3.826c-0.575,0.475-1.822,0.746-2.674,0.902
	c-0.786,0.166-1.395,0.38-1.848,0.485c-0.635,0.161-1.018,0.313-1.612,0.81c-0.369,0.303-0.865,0.754-1.205,1.064
	c-0.77,0.723-0.827,0.712-1.141,1.119c-0.163,0.296-1.074,1.11-1.662,0.973c-0.585,0.041-1.598-0.684-1.881-1.545
	c-0.338-0.982-0.875-3.507,0.254-5.379c0.763-1.075,1.78-1.297,3.003-1.962c0.817-0.446,1.794-0.952,2.72-1.071
	c0.416-0.065,0.906-0.101,1.468-0.1c0.561,0,1.192,0.036,1.631,0.061c1.118,0.088,1.546-0.025,2.326,0.018
	C196.225,262.562,196.698,262.601,197.219,263.294"/>
<path fill-rule="evenodd" fill="#FFFFFF" d="M194.162,263.929c-1.275-0.032-2.547-0.196-3.743,0
	c-0.829,0.137-1.593,0.593-2.376,1.009c-0.947,0.502-1.998,0.808-2.377,1.512c-0.473,0.88-0.367,2.102-0.216,3.312
	c0.081,0.647,0.405,1.234,0.792,1.297c0.226,0.035,0.528-0.582,1.008-1.008c0.936-0.83,1.791-1.746,2.809-2.377
	c0.671-0.416,1.508-0.54,2.304-0.791c1.165-0.368,2.443-0.383,3.168-0.937c0.631-0.482,0.843-1.372,0.505-1.872
	C195.838,263.784,194.996,263.95,194.162,263.929"/>
<path fill-rule="evenodd" d="M32.648,242.376c1.21-0.462,2.932-0.761,7.163-0.373c4.23,0.387,10.97,1.461,15.95,2.424
	c4.98,0.963,8.201,1.814,11.679,2.646c3.479,0.831,7.214,1.641,14.121,2.474c6.907,0.832,16.983,1.688,25.486,1.824
	c8.502,0.135,15.43-0.449,23.663-1.76c8.233-1.31,17.772-3.344,23.084-4.567s6.396-1.636,8.334-2.242s4.731-1.406,6.67-1.95
	c1.939-0.543,3.023-0.83,3.984-1.104c0.962-0.274,1.799-0.536,3.219-0.917c1.419-0.381,3.421-0.881,4.569-1.158
	c1.148-0.276,1.445-0.329,1.753-0.404c0.31-0.074,0.63-0.171,1.362-0.315c0.731-0.144,1.875-0.337,2.792-0.146
	s1.608,0.765,2.194,2.055c0.586,1.291,1.066,3.298,1.33,4.468s0.311,1.502,0.43,2.049c0.118,0.546,0.308,1.307,0.451,2.106
	s0.241,1.641,0.331,2.583c0.089,0.943,0.171,1.988,0.606,3.274c0.435,1.286,1.224,2.812,1.812,3.888
	c0.588,1.077,0.976,1.705,1.273,2.491c0.299,0.786,0.508,1.733,0.357,2.476c-0.149,0.744-0.657,1.285-1.405,1.663
	s-1.736,0.593-2.694,0.795c-0.957,0.202-1.884,0.39-3.332,0.986c-1.448,0.596-3.419,1.6-6.129,2.657
	c-2.711,1.057-6.162,2.167-8.58,2.907c-2.418,0.741-3.802,1.112-5.073,1.485s-2.431,0.748-5.071,1.459s-6.764,1.76-14.063,2.6
	c-7.3,0.84-17.777,1.473-23.782,1.788s-7.539,0.313-9.513,0.412c-1.974,0.099-4.387,0.3-8.376,0.5s-9.554,0.399-16.675,0.074
	c-7.121-0.326-15.798-1.177-23.841-2.464c-8.043-1.287-15.451-3.012-20.464-4.332c-5.013-1.322-7.631-2.24-9.263-2.788
	c-1.631-0.548-2.275-0.724-2.98-0.966c-0.706-0.241-1.474-0.547-2.417-0.938s-2.063-0.863-2.861-1.063
	c-1.378-0.361-2.017,0.193-2.915-0.414c-0.354-0.264-0.659-0.736-0.627-1.237c0.03-0.501,0.396-1.029,0.68-1.297
	c0.284-0.268,0.486-0.274,0.973-1.396c0.487-1.122,1.259-3.357,1.778-5.613c0.519-2.255,0.784-4.529,0.855-6.004
	c0.071-1.476-0.051-2.152,0.008-3.174c0.06-1.021,0.303-2.387,0.774-3.381C30.739,243.461,31.438,242.837,32.648,242.376"/>
<path fill-rule="evenodd" fill="#FFFFFF" d="M31.083,246.361c-0.459,2.196,0.111,4.733-0.288,7.128
	c-0.552,3.311-1.415,6.574-2.521,9.721c-0.421,1.199-1.712,1.975-1.656,2.159c0.062,0.204,1.289-0.103,2.376,0.216
	c2.182,0.639,4.269,1.697,6.48,2.377c6.35,1.949,12.622,4.136,19.08,5.472c8.98,1.857,18.081,3.157,27.216,4.104
	c6.418,0.665,12.893,0.72,19.368,0.72c4.75,0,9.496-0.496,14.256-0.72c7.014-0.329,14.041-0.364,21.024-0.936
	c6.809-0.558,13.607-1.237,20.304-2.448c4.845-0.876,9.552-2.465,14.328-3.816c2.714-0.768,5.426-1.542,8.063-2.52
	c2.929-1.086,5.733-2.51,8.64-3.672c2.688-1.075,5.817-1.035,6.121-2.232c0.419-1.654-2.382-4.72-3.456-8.279
	c-0.675-2.234-0.594-4.686-1.152-6.984c-0.787-3.24-1.022-6.61-2.521-8.137c-0.888-0.904-2.966-0.068-5.111,0.36
	c-3.365,0.673-6.662,1.76-10.008,2.664c-7.609,2.058-15.064,4.686-22.752,6.192c-11.382,2.23-22.752,4.514-34.2,4.968
	c-12.129,0.481-24.33-0.737-36.504-2.16c-7.829-0.915-15.448-3.404-23.256-4.823c-5.436-0.989-10.883-1.914-16.344-2.377
	c-2.046-0.173-4.097-0.167-5.76,0.504C31.877,244.218,31.317,245.235,31.083,246.361"/>
<path fill-rule="evenodd" d="M88.314,13.071c-0.278,0.094-0.76,0.259-1.187,0.517c-0.625,0.397-1.191,0.922-1.361,1.41
	c-0.038,0.226-0.174,0.438-0.576,0.679c-0.308,0.171-0.96,0.58-1.594,1.427c-0.328,0.45-0.597,0.992-0.805,1.565
	c-0.208,0.573-0.356,1.177-0.438,1.581c-0.146,0.884-0.184,0.982-0.455,1.489c-0.142,0.263-0.323,0.583-0.482,1.077
	c-0.337,0.854-0.463,3.065-0.293,4.987c0.071,0.885,0.181,1.52,0.417,2.071c0.381,0.861,0.95,1.441,1.224,1.745
	c0.122,0.142,0.294,0.369,0.372,0.533c0.131,0.42,0.333,1.573,1.847,2.594c0.465,0.289,1.063,0.543,1.43,0.671
	c0.527,0.198,0.51,0.054,0.859,0.299c0.049,0.213,1.347,1.498,2.571,1.875c1.144,0.459,1.962,0.212,2.658,0.172
	c0.563,0.074,0.989,0.331,1.679,0.419c0.715,0.092,1.58,0.116,2.183-0.213c0.462-0.211,0.843-0.415,1.16-0.323
	c0.4,0.098,1.104,0.255,1.875,0.046c0.466-0.127,0.961-0.393,1.257-0.565c0.296-0.173,0.395-0.253,0.707-0.444
	c0.594-0.376,1.527-0.829,2.05-1c0.487-0.225,0.967-0.549,1.197-0.805c0.136-0.122,0.345-0.285,0.617-0.514
	c0.271-0.23,0.606-0.527,0.774-0.701c0.255-0.26,0.134-0.284,0.494-0.496c0.11-0.039,0.661-0.157,1.19-0.417
	c0.18,0.093,0.569,0.224,1.019,0.299c0.217,0.522,0.52,1.007,0.948,1.482c1.015,1.051,2.005,1.804,2.974,2.109
	c0.552,0.173,1.214,0.255,1.869,0.228c0.9,1.016,1.703,1.279,3.099,1.594c0.51,0.157,0.972-0.209,1.464-0.176
	c0.079,0.053,0.582,0.389,1.068,0.706c0.854,0.073,1.715,0.099,2.283,0.083c0.567-0.017,0.842-0.077,1.146-0.184
	c0.638-0.196,1.178-0.643,1.708-0.694c0.496,0.086,1.144,0.163,2.022-0.019c0.851-0.065,2.126-0.859,3.145-1.904
	c0.306-0.327,0.623-0.728,0.811-1.008c0.43-0.704,0.267-0.631,0.411-0.964c0.136-0.362,0.317-0.8,0.572-1.037
	c0.423-0.466,0.689-0.998,0.997-1.738c0.196-0.478,0.414-1.064,0.539-1.616c0.125-0.552,0.158-1.071,0.185-1.816
	c0.026-0.745,0.047-1.717,0.004-2.506c-0.042-0.789-0.148-1.395-0.218-1.777c-0.069-0.382-0.102-0.541-0.127-0.679
	c-0.046-0.179-0.128-1.001-0.327-1.745c-0.387-1.105-0.611-1.03-0.864-1.602c-0.285-0.778-0.298-1.375-0.825-2.204
	c-0.352-0.534-0.799-1.151-1.554-1.726c-0.56-0.393-1.136-0.583-1.713-0.694c-0.032-0.403-0.403-1.281-1.381-2.234
	c-0.202-0.176-0.438-0.337-0.689-0.471l0.194-0.387c1.082,0.275,2.237,0.404,3.643-0.569c0.918-0.944,0.566-1.633-0.396-2.711
	c-0.342-0.302-0.699-0.508-1.041-0.59c-1.025-0.151-2.833,0.102-4.63,0.914c-1,0.426-1.438,0.815-1.981,1.127
	c-0.25,0.124-0.445,0.234-0.672,0.186c-0.347-0.177-1.533-0.953-2.33-0.912c-1.037-0.061-1.2,0.28-2.006,0.085
	c-0.618-0.199-2.438-1.093-3.464-0.983c-0.325,0.006-0.702,0.041-1.026,0.091c-0.766,0.084-1.309,0.464-1.571,0.17
	c-0.705-0.405-2.202-0.86-3.384-0.715c-0.342,0.025-0.678,0.074-0.947,0.137c-0.995,0.234-0.96,0.596-1.652,0.411
	c-0.599-0.174-2.255-0.435-3.417-0.136c-0.615,0.161-1.372,0.504-2.093,0.916c-1.306-0.408-2.209-0.489-3.795,0.418
	c-0.379,0.197-0.641,0.482-0.719,0.248c-0.229-0.275-0.914-0.804-1.521-0.973c-0.232-0.067-0.742-0.252-1.309-0.527
	c-0.456-0.239-0.699-0.404-1.26-0.63c-1.121-0.435-1.874-0.499-2.858-0.322C87.121,7.767,85.828,8.5,85.74,9.547
	c-0.031,0.622-0.03,1.089,0.883,2.018c0.096,0.086,0.137,0.118,0.183,0.157c0.114,0.107,1.302,1.111,1.941,1.215
	C88.669,12.954,88.593,12.977,88.314,13.071 M103.975,29.277c-0.488-0.481-0.348-1.454-1.366-2.029
	c-0.334-0.183-1.562-1.404-1.787-2.049c-0.348-0.598-0.456-0.677-0.83-1.159c-0.243-0.31-0.599-0.776-0.842-1.13
	c-0.782-1.121-0.535-1.436-1.279-2.34c-0.857-0.66-1.306-0.71-2.095-1.658c-0.283-0.327-0.594-0.73-0.771-0.964
	c-0.352-0.463-0.341-0.5-0.679-0.795c-0.265-0.212-0.555-0.359-0.896-0.586c-0.377-0.473-1.012-0.016-1.401,0.582
	c-0.111,0.206-0.676,0.74-1.178,1.161c-0.593,0.516-1.157,0.722-1.899,0.964c-0.066,0.489-0.331,1.054-0.757,1.62
	c-0.137,0.195-0.219,0.32-0.306,0.456c-0.153,0.291-0.814,1.012-1.563,1.733c0.552,1.174,0.482,2.436-0.04,3.979
	c0.559,0.602,0.743,1.125,0.959,1.892c0.123,0.478,0.223,1.062,0.274,1.648c0.996,0.248,1.891,0.609,2.97,2.01
	c0.823-0.003,1.598-0.023,2.627,0.37c0.398,0.228,0.593,0.278,0.788,0.135c0.375-0.182,1.473-0.37,2.45-0.399
	c1.128,0.003,1.352,0.432,2.111-0.118c0.54-0.417,1.663-0.801,2.625-0.868c0.272-0.367,0.519-0.685,0.679-0.88
	c0.125-0.173,0.421-0.521,0.916-0.853C103.11,29.716,103.601,29.48,103.975,29.277 M107.598,25.636
	c0.081-0.289,0.445-1.117,1.036-1.908c0.34-0.438,0.756-0.814,1.087-1.138c0.984-0.968,0.873-1.166,1.395-1.953
	c0.309-0.484,0.795-1.15,1.137-1.556c0.673-0.775,0.761-0.644,1.016-0.905c0.129-0.121,0.314-0.318,0.454-0.566
	c0.14-0.248,0.235-0.547,0.618-1.138s1.054-1.475,1.765-2.319c-0.458-0.131-1.03-0.151-1.567-0.064
	c-0.48,0.081-1.229,0.116-2.156,0.037c-0.566-0.053-1.159-0.165-1.529-0.242c-0.853-0.184-0.828-0.243-1.324-0.242
	c-0.264,0.009-0.593,0.069-0.835,0.116c-0.407,0.095-1.29,0.206-2.202,0.23c-1.181,0.098-1.659-0.454-2.494-0.257
	c-0.129,0.065-1.161,0.218-2.123,0.31c-0.601,0.056-1.15,0.081-1.516,0.064c-0.584-0.029-0.738-0.156-0.986-0.17
	c0.633,0.718,1.159,1.803,1.477,2.339c0.363,0.387,0.573,0.488,0.778,0.68c0.298,0.204,1.089,1.251,1.574,2.119
	c0.63,1.058,0.694,1.708,1.357,2.069c0.344,0.213,0.843,0.946,1.15,1.357c0.097,0.128,0.212,0.276,0.473,0.667
	c0.261,0.392,0.667,1.026,0.896,1.425C107.456,25.263,107.396,25.351,107.598,25.636 M120.191,17.142
	c-0.14,0.601-0.519,1.165-1.083,1.853c-0.324,0.389-0.721,0.812-0.99,1.071c-0.492,0.48-0.653,0.44-0.946,0.844
	c-0.292,0.457-0.379,0.804-0.519,1.114c-0.125,0.333-0.684,1.257-1.389,2.045c-0.32,0.359-0.608,0.613-0.921,0.83
	c-0.168,0.821-0.557,1.98-1.495,3.005c-0.454,0.452-0.645,0.505-1.093,0.975c-0.282,0.208,0.309,0.448,0.409,0.638
	c0.112,0.143,0.49,0.42,0.829,0.605c0.513,0.311,2.217,1.268,3.467,2.718c1.106-0.22,2.1-0.173,3.081,0.242
	c0.352,0.145,0.723,0.338,0.918,0.444c0.396,0.214,0.345,0.222,0.58,0.277c0.241,0.033,0.528-0.133,0.828-0.258
	c0.875-0.379,2.136-0.531,3.604-0.524c0.391-0.506,0.81-0.99,1.166-1.353c0.693-0.693,1.002-0.854,1.313-1.129
	c0.489-0.434,0.825-0.75,0.869-1.143c0.041-0.248,0.034-0.586,0.026-0.839c-0.055-0.818-0.055-2.704,0.485-4.031
	c0.175-0.549-0.56-0.922-1.067-1.472c-0.543-0.718-0.987-2.264-1.071-3.56c-0.629-0.067-1.443-0.539-2.238-1.293
	c-0.549-0.503-0.758-0.917-1.113-1.271c-0.619-0.45-0.826-0.412-1.338-0.746c-0.449-0.285-0.715-0.391-1.186,0.056
	C121.079,16.452,120.671,16.773,120.191,17.142"/>
<path fill-rule="evenodd" fill="#7F7F7F" d="M82.355,23.179c0.365-1.351,1.123-2.209,2.167-2.915
	c0.485-0.359,1.354-0.486,2.245-0.626c0.585-0.09,0.8-0.118,1.074-0.166c-0.304,0.781-0.722,1.271-0.985,1.659
	c-0.211,0.266-0.257,0.484-0.77,0.835c-0.814,0.708-1.863,0.865-3.368,2.138c-0.355,0.374-0.56,0.734-0.725,1.029
	C82.069,24.423,82.203,23.719,82.355,23.179"/>
<path fill-rule="evenodd" fill="#7F7F7F" d="M83.022,30.545c-0.225-0.307-0.646-0.836-0.68-1.218
	c-0.139-0.583-0.22-1.557-0.059-2.691c0.213-0.81,0.544-1.689,2.016-2.596c0.435-0.203,0.593-0.314,1.067-0.491
	c0.304,0.331,0.273,0.767,0.353,1.205c0.032,0.678-0.159,1.324-0.523,2.022c-0.398,0.745-0.643,1.107-0.915,1.507
	c-0.477,0.691-1.099,1.703-1.155,2.4C83.097,30.646,83.069,30.609,83.022,30.545"/>
<path fill-rule="evenodd" fill="#7F7F7F" d="M83.894,18.404c0.211-0.543,0.609-1.017,1.214-1.562
	c1.432-1.191,2.23-0.733,3.706-0.556c0.82,0.167,1.654,0.276,2.324,0.391c-0.137,0.328-0.99,0.986-1.582,1.315
	c-0.376,0.218-1.001,0.362-1.637,0.444c-0.232,0.032-0.352,0.043-0.786,0.095c-0.435,0.052-1.183,0.145-1.703,0.246
	c-0.937,0.19-1.283,0.413-1.846,0.742C83.654,19.116,83.767,18.718,83.894,18.404"/>
<path fill-rule="evenodd" fill="#7F7F7F" d="M86.52,34.526c-0.336-0.06-1.674-0.712-2.247-1.896
	c-0.362-0.815-0.262-1.566,0.016-2.465c0.161-0.489,0.758-1.403,1.423-2.367c0.253,0.447,0.456,0.926,0.567,1.332
	c0.265,1.167,0.081,1.415,0.13,2.234c0.029,0.664,0.003,0.827,0.049,1.48c0.031,0.412,0.095,0.965,0.133,1.261
	c0.041,0.368,0.079,0.342,0.064,0.397C86.625,34.525,86.586,34.535,86.52,34.526"/>
<path fill-rule="evenodd" fill="#7F7F7F" d="M91.482,15.71c-0.336-0.019-0.804-0.075-1.259-0.154
	c-0.984-0.202-2.145-0.383-3.421-0.415c0.181-0.27,0.433-0.641,1.161-0.96c0.301-0.093,0.99-0.362,1.47-0.533
	c0.39-0.12,0.879-0.286,1.232-0.269c0.379,0.732,0.909,1.494,1.552,2.28C92.021,15.709,91.817,15.729,91.482,15.71"/>
<path fill-rule="evenodd" fill="#7F7F7F" d="M89.8,12.095c-0.479-0.025-0.857-0.163-1.341-0.455c-0.765-0.542-0.79-0.517-1.461-1.16
	c-0.292-0.484-0.143-1.296,0.894-1.672c0.438,0.031,1.032,0.286,1.678,1.363c0.133,0.52,0.431,1.02,0.476,1.909
	C89.981,12.097,89.915,12.102,89.8,12.095"/>
<path fill-rule="evenodd" fill="#7F7F7F" d="M90.841,36.885c-0.489-0.063-1.169-0.349-1.881-0.787
	c-0.546-0.351-0.847-0.702-1.114-1.082c-0.353-0.589-0.449-2.212-0.396-3.458c0.838,0.145,1.347,0.502,2.128,1.369
	c0.413,0.478,0.804,1.191,1.077,1.851c0.22,0.494,0.354,1.102,0.984,1.945c0.073,0.091,0.125,0.164,0.174,0.24
	C91.475,36.963,91.136,36.934,90.841,36.885"/>
<path fill-rule="evenodd" fill="#7F7F7F" d="M91.378,9.272c0.964,0.582,1.068,0.898,1.33,1.494c0.153,0.376,0.33,0.879,0.454,1.348
	c0.124,0.47,0.196,0.904,0.317,1.491s0.292,1.325,0.388,1.732c0.096,0.408,0.118,0.484,0.144,0.56
	c-0.314-0.196-0.394-0.221-0.878-0.719c-0.582-0.625-1.502-1.743-1.779-2.511c-0.242-0.572-0.42-1.446-0.731-2.311
	c-0.258-0.811-0.741-1.285-1.251-1.726C90.029,8.705,90.714,8.899,91.378,9.272"/>
<path fill-rule="evenodd" fill="#7F7F7F" d="M91.164,33.503c0.433-0.015,0.868,0.056,1.306,0.226c0.438,0.17,0.88,0.44,1.201,0.686
	c0.964,0.843,0.797,0.741,1.313,1.264c0.3,0.323,0.756,0.841,1.201,1.369c-0.363,0.191-0.749,0.203-1.258,0.211
	c-1.344,0.143-2.417-0.547-3.161-2.272C91.554,34.443,91.312,34.031,91.164,33.503"/>
<path fill-rule="evenodd" fill="#7F7F7F" d="M94.34,10.784c0.491,0.379,0.551,0.308,0.882,0.769c0.39,0.549,0.73,0.848,1.077,1.558
	c0.336,0.751,0.542,1.625,0.73,2.215c0.083,0.286,0.172,0.617,0.223,0.875c0.051,0.258,0.062,0.443,0.109,0.824
	c0.081,0.625,0.228,1.619,0.335,2.272c-0.458-0.111-1.075-0.784-1.714-1.692c-0.319-0.459-0.594-0.933-0.762-1.296
	c-0.423-1.101-0.378-1.281-0.581-1.972c-0.135-0.537-0.187-1.319-0.421-2.198c-0.138-0.511-0.341-1.038-0.469-1.361
	s-0.183-0.445-0.245-0.563C93.821,10.425,94.135,10.639,94.34,10.784"/>
<path fill-rule="evenodd" fill="#7F7F7F" d="M95.233,33.75c0.755-0.158,1.844-0.125,2.71,0.2c0.262,0.118,0.522,0.305,0.717,0.447
	s0.325,0.239,0.615,0.452c0.291,0.213,0.741,0.542,1.019,0.744c0.278,0.204,0.384,0.274,0.49,0.356
	c-0.286,0.261-1.421,0.89-2.132,0.914c-0.799,0.026-1.354-0.195-1.972-0.767c-0.473-0.433-1.065-1.071-1.375-1.413
	c-0.217-0.233-0.515-0.537-0.739-0.759C94.76,33.853,94.959,33.799,95.233,33.75"/>
<path fill-rule="evenodd" fill="#7F7F7F" d="M102.374,13.118c-0.354,0.034-0.892,0.069-1.272,0.083
	c-0.927,0.021-0.903,0.002-1.369-0.167c-0.476-0.197-1.333-0.638-2.021-0.99c-0.739-0.438-1.156-0.4-1.567-0.757
	c-0.574-0.492-0.003-0.511,0.232-0.732c0.44-0.213,0.96-0.539,1.496-0.414c0.092,0.029,0.958,0.015,1.598,0.353
	c0.32,0.145,0.697,0.242,1.296,0.755c0.236,0.193,0.736,0.618,1.255,1.018c0.471,0.355,0.692,0.483,1.039,0.738
	C102.896,13.052,102.728,13.084,102.374,13.118"/>
<path fill-rule="evenodd" fill="#7F7F7F" d="M98.262,14.172c0.39,0.381,0.666,0.788,0.94,1.142c0.576,0.644,0.998,1.555,1.103,2.604
	c0.236,1.694-0.069,2.736-0.229,4.052c-0.021,0.203-0.037,0.406-0.046,0.609c-0.525-0.784-1.009-2.061-1.292-3.26
	c-0.125-0.541-0.172-0.948-0.276-1.635c-0.104-0.687-0.263-1.651-0.404-2.282c-0.258-1.114-0.45-1.341-0.649-1.878
	C97.719,13.708,98.011,13.928,98.262,14.172"/>
<path fill-rule="evenodd" fill="#7F7F7F" d="M99.495,33.015c0.491-0.242,1.379-0.311,2.206-0.305
	c1.519,0.017,2.191,0.397,3.415,0.585c-1.406,1.208-3.016,2.496-4.108,1.673c-0.384-0.25-1.203-0.886-2.021-1.5
	C99.1,33.282,99.264,33.128,99.495,33.015"/>
<path fill-rule="evenodd" fill="#7F7F7F" d="M101.478,9.498c0.498-0.135,0.854-0.142,1.213-0.145
	c0.115-0.015,0.822-0.002,1.438,0.062c0.337,0.035,0.594,0.083,0.979,0.375c0.637,0.495,1.464,1.44,1.958,1.959
	c0.345,0.36,0.703,0.744,0.889,0.844c0.142,0.081,0.545,0.395-0.069,0.383c-0.42,0.02-0.429,0.036-0.984,0.041
	c-0.379,0.001-0.924-0.012-1.243-0.035c-0.72-0.082-0.522-0.115-0.81-0.175c-0.472-0.075-1.076-0.523-1.358-0.667
	c-0.568-0.243-1.189-0.841-1.959-1.435c-0.235-0.208-0.62-0.464-1.079-0.742C100.782,9.757,101.142,9.593,101.478,9.498"/>
<path fill-rule="evenodd" fill="#7F7F7F" d="M103.214,26.669c-0.732-0.673-1.614-1.59-1.993-2.76
	c-0.106-0.325-0.145-0.605-0.145-1.025c0.004-0.785,0.095-1.684,0.2-2.227c0.153-0.624,0.077-1.833-0.052-2.78
	c0.382,0.443,0.648,0.828,0.824,1.119c0.242,0.295,0.798,1.365,1.149,2.406c0.216,0.638,0.351,1.26,0.401,1.866
	c0.051,0.606,0.017,1.197-0.003,1.674c-0.034,0.875-0.028,1.422-0.043,2.038C103.437,26.88,103.323,26.776,103.214,26.669"/>
<path fill-rule="evenodd" fill="#7F7F7F" d="M103.917,30.393c1.144-0.651,2.387-0.756,3.549-0.74
	c0.847-0.005,1.558-0.004,2.164-0.033c-0.043,0.054-0.087,0.106-0.14,0.166c-0.054,0.045-0.611,0.725-1.146,1.29
	c-1.538,1.56-2.576,1.317-4.049,1.015c-0.73-0.2-1.403-0.239-2.03-0.357C102.747,31.191,103.32,30.727,103.917,30.393"/>
<path fill-rule="evenodd" fill="#7F7F7F" d="M105.015,23.073c0.248,0.337,0.604,0.855,0.857,1.259
	c0.385,0.621,0.573,1.001,0.746,1.501c0.146,0.811-0.523,0.838-1.02,1.606c-0.259,0.308-0.363,0.65-0.826,1.123
	c-0.286-0.518-0.211-1.184-0.212-2.009c0.024-1,0.001-2.564-0.084-4.109C104.629,22.583,104.768,22.737,105.015,23.073"/>
<path fill-rule="evenodd" fill="#7F7F7F" d="M106.064,28.321c0.467-0.473,1.048-1.531,2.531-2.029
	c0.411-0.183,0.821-0.348,1.169-0.438c0.958-0.192,0.939-0.089,1.396-0.139c0.45-0.034,1.187-0.079,1.545-0.206
	c0.156-0.04,0.361-0.083,0.567-0.122c-0.156,0.485-0.367,0.975-0.745,1.441c-0.799,0.827-1.223,1.238-1.773,1.549
	c-0.504,0.248-1.471,0.315-2.502,0.379c-0.622,0.031-1.268,0.038-1.672,0.024c-0.417-0.025-0.574-0.012-0.731-0.143
	C105.927,28.516,106.009,28.395,106.064,28.321"/>
<path fill-rule="evenodd" fill="#7F7F7F" d="M106.965,9.115c1.058-0.111,2.841-0.343,4.177,0.982
	c0.238,0.231,0.461,0.479,0.79,0.843c0.328,0.364,0.765,0.845,1.064,1.158c0.571,0.589,0.775,0.739,1.152,1.135
	c-0.59,0.146-1.599,0.04-2.661-0.143c-0.604-0.11-1.196-0.261-1.585-0.4c-0.767-0.297-0.755-0.427-0.998-0.541
	c-0.12-0.069-0.301-0.166-0.594-0.43s-0.699-0.694-0.929-0.949c-0.23-0.255-0.285-0.335-0.472-0.534s-0.506-0.518-0.831-0.829
	C106.338,9.272,106.617,9.177,106.965,9.115"/>
<path fill-rule="evenodd" fill="#7F7F7F" d="M109.441,24.265c0.66-0.797,1.327-1.52,1.881-1.74c0.592-0.285,1.622-0.549,2.514-0.727
	c0.799-0.149,1.473-0.282,2.063-0.54c-0.024,0.205-0.091,0.402-0.33,0.817c-0.24,0.415-0.652,1.047-1.037,1.476
	c-0.384,0.428-0.741,0.65-1.162,0.812c-0.642,0.235-1.314,0.359-1.876,0.393c-0.338-0.001-1.484,0.189-2.649,0.404
	C108.984,24.883,109.154,24.622,109.441,24.265"/>
<path fill-rule="evenodd" fill="#7F7F7F" d="M113.365,35.84c-0.616-0.093-1.069-0.311-1.728-0.81
	c-0.454-0.346-0.959-0.689-1.403-1.225c-0.361-0.408-0.654-1.208-0.775-1.724c-0.367-0.61,0.177-1.1,0.506-1.509
	c0.291-0.335,0.708-0.814,0.881-1.169c0.518,0.413,0.892,1.167,1.222,1.991c0.14,0.361,0.252,0.716,0.313,0.925
	c0.062,0.21,0.073,0.274,0.149,0.547c0.077,0.273,0.22,0.755,0.362,1.15c0.218,0.605,0.442,1.004,0.632,1.472
	c0.047,0.14,0.095,0.236,0.066,0.338C113.535,35.847,113.475,35.854,113.365,35.84"/>
<path fill-rule="evenodd" fill="#7F7F7F" d="M118.735,17.963c-0.278,0.38-0.791,1.077-1.649,1.67
	c-0.365,0.242-0.763,0.416-1.201,0.583c-0.439,0.167-0.919,0.325-1.269,0.419c-0.748,0.182-1.572,0.315-2.661,0.578
	c0.381-0.659,0.748-1.295,1.353-1.886c0.937-0.78,1.21-0.807,1.899-1.271c0.348-0.234,1.302-0.4,2.212-0.543
	c0.497-0.075,0.916-0.122,1.171-0.136C119.164,17.303,118.998,17.575,118.735,17.963"/>
<path fill-rule="evenodd" fill="#7F7F7F" d="M112.459,9.504c0.736-0.074,0.978,0.02,1.622,0.009c1.101,0.339,1.86,0.443,3.154,1.341
	c0.379,0.377,1.159,1.05,0.821,1.613c-0.103,0.142-0.381,0.553-0.559,0.878c-0.447-0.407-1.452,0.174-1.887-0.258
	c-0.464-0.235-0.965-0.609-1.504-1.161c-0.557-0.559-1.107-1.159-1.334-1.448c-0.209-0.243-0.468-0.56-0.758-0.838
	C112.155,9.576,112.303,9.53,112.459,9.504"/>
<path fill-rule="evenodd" fill="#7F7F7F" d="M117.684,37.502c-0.686-0.151-1.9-0.41-2.899-1.675
	c-0.174-0.229-0.315-0.475-0.519-0.921c-0.205-0.446-0.472-1.092-0.628-1.513c-0.313-0.885-0.275-0.959-0.434-1.433
	c-0.072-0.236-0.161-0.517-0.253-0.796c0.203,0.161,1.068,0.677,1.972,1.434c0.889,0.746,1.43,1.721,1.935,2.674
	c0.458,0.849,0.863,1.583,1.256,2.23C117.999,37.529,117.881,37.534,117.684,37.502"/>
<path fill-rule="evenodd" fill="#7F7F7F" d="M115.189,16.972c-0.009,0.006,0.319-0.792,0.872-1.446
	c0.68-0.795,1.864-1.332,2.936-1.491c1.12-0.116,2.169,0.113,3.34,0.202c-0.559,0.721-2.075,1.896-3.074,2.066
	c-0.53,0.134-1.674,0.203-2.755,0.391c-0.718,0.137-1.016,0.277-1.374,0.418C115.154,17.063,115.174,17.014,115.189,16.972"/>
<path fill-rule="evenodd" fill="#7F7F7F" d="M123.621,37.858c-0.763,0.33-2.254,0.632-3.276,0.064
	c-0.712-0.317-1.479-0.944-1.947-1.793c-0.337-0.576-0.83-1.55-1.327-2.385c0.699-0.167,1.508-0.021,2.438,0.322
	c0.485,0.138,1.342,0.824,2.198,1.583c0.967,0.82,0.98,1.041,1.619,1.469c0.261,0.179,0.41,0.231,0.66,0.509
	C123.903,37.711,123.807,37.778,123.621,37.858"/>
<path fill-rule="evenodd" fill="#7F7F7F" d="M118.328,10.388c0.265-0.037,1.185,0.148,1.854,0.464l-1.185,0.722
	c-0.154-0.276-0.328-0.542-0.464-0.715c-0.204-0.258-0.312-0.317-0.422-0.405C118.168,10.418,118.231,10.396,118.328,10.388"/>
<path fill-rule="evenodd" fill="#7F7F7F" d="M118.979,12.901c0.951-0.991,1.315-1.106,2.095-1.42
	c0.308-0.109,0.683-0.219,0.902-0.272c0.414-0.094,0.36-0.026,0.507-0.055c0.154-0.068,0.838,0.092,1.367,0.211
	c0.328,0.062,0.969,0.221,1.669,0.415c-1.106,1.466-2.007,1.41-3.466,1.465c-0.814-0.015-1.29-0.161-1.893-0.183
	c-0.474-0.012-0.95,0.014-1.355,0.071C118.847,13.073,118.891,13.014,118.979,12.901"/>
<path fill-rule="evenodd" fill="#7F7F7F" d="M130.206,35.107c-0.557,0.811-1.731,1.73-2.479,1.988
	c-1.16,0.404-2.13,0.38-3.253-0.327c-0.278-0.172-0.53-0.371-0.698-0.52c-0.352-0.332-0.965-0.946-1.72-1.641
	c0.83-0.441,1.758-0.676,2.58-0.636c0.374,0.01,0.724,0.052,0.946,0.092c0.221,0.04,0.313,0.077,0.7,0.191
	c0.387,0.114,1.067,0.305,1.602,0.41c0.862,0.173,1.443,0.132,2.122,0.004c0.229-0.042,0.394-0.076,0.558-0.117
	C130.483,34.715,130.388,34.869,130.206,35.107"/>
<path fill-rule="evenodd" fill="#7F7F7F" d="M123.051,15.515c-0.441-0.219-0.344-0.4-0.025-0.709
	c0.113,0.278,0.138,0.518,0.222,0.802C123.18,15.58,123.113,15.549,123.051,15.515"/>
<path fill-rule="evenodd" fill="#7F7F7F" d="M123.912,10.215c0.318-0.147,0.807-0.403,1.16-0.567
	c0.289-0.165,1.188-0.355,2.004-0.464c0.864-0.12,1.389-0.151,2.017,0.362c0.499,0.479,0.472,1.273-0.358,1.49
	c-0.957,0.413-1.691,0.198-2.466-0.032c-0.807-0.25-1.835-0.531-2.604-0.67C123.714,10.31,123.764,10.286,123.912,10.215"/>
<path fill-rule="evenodd" fill="#7F7F7F" d="M126.717,18.307c-0.436-0.277-1.152-0.704-1.699-1.381
	c-0.484-0.612-0.871-1.687-1.24-2.818c0.662-0.391,1.06-0.394,1.715-0.953c0.522,0.236,1.276,0.907,1.529,1.48
	c0.193,0.355,0.301,1.178,0.357,1.956c0.042,1.071,0.018,1.417-0.104,1.953C127.122,18.516,126.977,18.461,126.717,18.307"/>
<path fill-rule="evenodd" fill="#7F7F7F" d="M132.854,29.64c-0.232,0.931-0.53,2.107-1.716,3.517
	c-0.786,0.677-1.669,0.624-2.766,0.634c-0.542-0.055-1.013-0.027-1.654-0.435c-0.198-0.417,0.005-0.395,0.324-0.803
	c0.559-0.564,1.622-1.718,2.372-1.989c0.498-0.191,0.615-0.167,0.99-0.293c0.563-0.194,1.624-0.574,2.554-1.367
	C132.947,29.126,132.918,29.347,132.854,29.64"/>
<path fill-rule="evenodd" fill="#7F7F7F" d="M128.822,16.389c0.813,0.348,2.056,1.834,2.156,2.693
	c0.121,0.475,0.236,1.582,0.006,2.25c-0.309,0.762-0.463,1.008-1.021,1.904c-0.433,0.082-1.205-0.958-1.337-1.558
	c-0.161-0.491-0.258-1.315-0.291-2.123c-0.017-0.438-0.009-0.852,0.005-1.109c0.044-0.523,0.093-1.218,0.124-2.162
	C128.578,16.294,128.689,16.325,128.822,16.389"/>
<path fill-rule="evenodd" fill="#7F7F7F" d="M129.826,28.704c-0.002-0.97-0.005-0.775,0.007-1.529
	c0.008-0.459,0.024-1.202,0.149-1.771c0.125-0.568,0.36-0.964,0.504-1.185c0.145-0.221,0.197-0.269,0.361-0.542
	c0.338-0.566,0.921-1.668,1.178-2.457c0.394,1,0.699,2.247,0.853,3.462c0.073,0.592,0.096,1.127,0.09,1.563
	c-0.023,0.806-0.063,1.204-0.384,1.623c-0.242,0.325-0.623,0.759-0.905,0.859c-0.532,0.264-1.001,0.51-1.741,0.766
	C129.885,29.194,129.844,28.894,129.826,28.704"/>
<path fill-rule="evenodd" d="M48.494,252.984c0.502,0.145,0.968,0.247,1.454,0.955c0.772,1.646,0.227,3.664-1.94,6.027
	c-1.384,1.269-2.681,1.719-4.363,0.567c-0.842-0.918-0.714-1.668-0.519-2.727c0.284-1.119,0.787-2.331,2.121-3.689
	C46.277,253.099,47.417,252.732,48.494,252.984 M43.693,261.327c0.052,0.408,0.249,0.8,0.632,1.148
	c0.562,0.473,1.018,0.68,1.963,1.045c0.642,0.235,1.489,0.487,2.346,0.691c0.002-0.209,0.03-0.268,0.093-0.407
	c-0.62-0.205-1.229-0.45-1.656-0.661c-0.639-0.326-0.865-0.502-1.25-0.879c-0.173-0.188-0.257-0.33-0.321-0.48
	c1.525,0.007,2.994-0.26,4.469-1.881c1.386-1.65,2.596-4.367,0.623-6.396c-1.281-1.119-3.469-1.516-5.231-0.728
	c-0.824,0.379-1.63,0.927-2.433,1.96c-0.965,1.34-1.604,2.964-1.116,4.687C42.021,260.181,42.848,261.013,43.693,261.327
	 M58.596,263.172c-0.47,0.196-1.041,0.489-1.483,0.221c-0.105-0.194,0.014-0.454,0.126-0.704l2.119-4.591
	c-0.347-0.067-0.684-0.164-1.004-0.296l-0.973,2.137l-0.256,0.115c-0.578,0.615-1.209,1.184-1.727,1.566
	c-0.775,0.557-1.233,0.743-1.846,0.934c-0.523,0.219-1.065-0.258-0.815-0.592c0.044-0.156,0.217-0.513,0.428-0.838l1.333-2.284
	c0.193-0.342,0.345-0.613,0.483-0.985c0.188-0.309-0.077-0.873-0.504-0.795c-0.11-0.037-1.16,0.322-2.133,0.682
	c0.056,0.105,0.075,0.159,0.11,0.276c0.277-0.081,0.556-0.155,0.726-0.194c0.588-0.208,0.652,0.283,0.456,0.548
	c-0.607,1.04-1.209,1.982-1.904,3.234c-0.29,0.729-0.633,1.259,0.502,1.706c0.616,0.087,0.845-0.027,1.432-0.233
	c0.674-0.19,2.134-1.162,3.444-2.525c-0.383,0.849-0.837,1.549-1.227,2.729c-0.105,0.281,0.11,0.887,0.745,0.861
	c0.498,0.008,1.171-0.188,2.041-0.659C58.609,263.374,58.592,263.279,58.596,263.172 M59.935,262.248
	c-0.069,0.873-0.224,1.74,1.25,2.64c1.385,0.563,2.943,0.654,4.66-1.175c0.909-1.192,1.478-2.668,0.279-4.065
	c-1.407-1.125-3.303-1.361-5.32,0.75C60.333,260.976,60.035,261.632,59.935,262.248 M64.438,259.284
	c0.452,0.037,1.029,0.427,1.151,0.77c0.372,0.99,0.045,2.23-1.262,3.783c-1.114,1.066-1.759,1.23-2.977,0.442
	c-0.838-1.211-0.311-2.399,1.051-4.118C63.098,259.393,63.747,259.183,64.438,259.284 M71.641,264.586
	c-0.306,0.704-0.815,1.892,0.27,2.018c0.558,0.048,1.309-0.186,2.267-0.824c-0.076-0.113-0.115-0.228-0.115-0.325
	c-0.394,0.209-0.758,0.396-1.189,0.432c-0.388,0.154-0.48-0.418-0.374-0.619c0.037-0.199,0.222-0.688,0.421-1.163l2.438-5.933
	c0.11-0.268,0.221-0.535,0.284-0.701c0.159-0.506,0.228-0.583,0.001-0.894c-0.143-0.106-0.368-0.118-0.568-0.093
	c-0.2-0.008-1.104,0.435-1.982,0.887c0.072,0.07,0.111,0.146,0.158,0.259c0.513-0.212,1.141-0.659,1.305-0.16
	c-0.014,0.119-0.128,0.401-0.269,0.755l-1.262,3.033c-0.015-0.545-0.628-1.273-1.259-1.27c-0.91-0.074-1.738,0.295-2.825,1.442
	c-0.96,1.024-1.762,2.368-1.578,3.45c0.22,1.23,1.342,1.397,2.031,1.208C70.078,265.896,70.74,265.532,71.641,264.586
	 M72.054,263.573l-0.234,0.119c-0.234,0.354-0.502,0.688-0.747,0.935c-0.895,0.766-1.882,1.526-2.516,0.011
	c0.005-1.204,0.484-2.092,2.056-3.793c0.81-0.687,1.509-0.732,1.995,0.189c0.135,0.299,0.111,0.823,0.028,1.063
	C72.573,262.362,72.329,262.982,72.054,263.573 M75.302,266.272c-0.231,0.897,1.539,1.349,1.629,0.196
	C77.126,265.692,75.685,264.986,75.302,266.272 M85.951,266.265c-0.097,0.518-0.674,1.215-0.977,1.179
	c-0.198,0.057-0.597,0.064-0.991,0.028c0.034,0.107,0.027,0.303-0.036,0.457c0.607,0.025,1.215,0.053,1.559,0.068
	c0.644,0.03,0.494,0.025,0.674,0.038c0.489,0.04,1.202,0.118,2.106,0.235c-0.029-0.237-0.005-0.299,0.036-0.457
	c-0.411-0.086-0.963,0.033-1.238-0.458c-0.039-0.306,0.048-0.464,0.162-0.819l2.616-7.139c0.617,0.146,1.375-0.225,2.095,0.53
	c0.148,0.303,0.167,0.758,0.156,1.337c0.158-0.074,0.255-0.07,0.383,0.047c0.114-0.806,0.231-1.521,0.375-2.315
	c-1.583-0.035-2.967-0.119-4.84-0.297c-0.754-0.077-1.455-0.171-2.214-0.286c-0.329,0.769-0.612,1.287-1.119,2.139
	c0.194,0.011,0.269,0.033,0.466,0.093c0.214-0.364,0.387-0.67,0.761-1.003c0.901-0.759,1.623-0.355,2.518-0.355L85.951,266.265
	 M94.969,267.374c-0.441,0.272-0.811,0.517-1.262,0.606c-0.239,0.124-0.628-0.152-0.464-0.485c0.022-0.202,0.187-0.701,0.377-1.205
	l0.875-2.465c0.155-0.578,0.692-1.526-0.084-1.646c-0.504,0.047-0.662,0.106-1.19,0.412c-0.313,0.193-0.759,0.52-1.183,0.869
	c0.08,0.105,0.116,0.204,0.127,0.302c0.447-0.321,0.958-0.737,1.33-0.593c0.026,0.408-0.103,0.546-0.273,1.097l-0.698,1.97
	c-0.203,0.508-0.382,0.969-0.461,1.484c-0.188,0.455,0.229,1.053,0.721,1.006c0.65-0.006,1.357-0.346,2.345-1.093
	C95.033,267.539,95.009,267.478,94.969,267.374 M94.216,259.73c-0.186,0.634,1.23,1.198,1.393,0.081
	C95.803,259.194,94.376,258.592,94.216,259.73 M98.731,260.292l-2.115,6.852c-0.067,0.221-0.136,0.44-0.174,0.578
	c-0.248,0.735,0.386,0.8,0.758,1.014c1.285,0.442,2.821,0.381,4.255-1.147c1.095-1.185,2.106-2.847,1.331-4.414
	c-0.631-0.901-1.756-0.776-2.417-0.449c-0.45,0.181-1.171,0.71-1.825,1.526l1.234-4.122c0.093-0.312,0.175-0.628,0.221-0.805
	c0.106-0.415,0.059-0.352,0.06-0.519c-0.072-0.471-0.442-0.37-0.723-0.327c-0.195,0.013-1.05,0.544-1.881,1.087
	c0.075,0.061,0.098,0.128,0.17,0.24c0.493-0.289,0.953-0.623,1.286-0.421C98.942,259.708,98.842,259.829,98.731,260.292
	 M98.31,265.204l0.18-0.13c0.212-0.383,0.469-0.743,0.718-1.013c0.808-0.777,1.625-1.297,2.448-0.457
	c0.453,1.287-0.103,2.554-1.564,4.27c-0.662,0.618-1.76,1.331-2.522,0.196C97.441,267.339,97.999,266.23,98.31,265.204
	 M107.33,267.751c-0.428,0.291-0.796,0.555-1.234,0.66c-0.256,0.146-0.625-0.154-0.485-0.465c0.014-0.204,0.157-0.709,0.325-1.22
	l0.768-2.502c0.112-0.573,0.657-1.505-0.156-1.64c-0.495,0.066-0.654,0.133-1.171,0.463c-0.304,0.207-0.736,0.552-1.144,0.921
	c0.085,0.103,0.125,0.199,0.141,0.296c0.435-0.347,0.941-0.784,1.303-0.651c0.044,0.408-0.08,0.552-0.225,1.108l-0.611,1.998
	c-0.181,0.517-0.339,0.979-0.396,1.502c-0.155,0.432,0.233,1.039,0.764,0.974c0.641-0.032,1.33-0.395,2.295-1.194
	C107.401,267.911,107.375,267.852,107.33,267.751 M106.246,260.146c-0.183,0.54,1.202,1.233,1.395,0.02
	c0.121-0.451-0.871-1.216-1.357-0.246C106.26,259.991,106.247,260.069,106.246,260.146 M114.338,267.263
	c-0.042,0.541-0.562,1.341-1.022,1.335c-0.129,0.03-0.301,0.058-0.474,0.073c0.047,0.105,0.059,0.307,0.015,0.458
	c0.636-0.06,1.468-0.121,1.833-0.129c0.619-0.019,1.236-0.016,1.973,0.005c-0.057-0.24-0.036-0.297-0.015-0.457
	c-0.403,0.033-1.317-0.146-1.1-0.553c0.007-0.119,0.057-0.366,0.121-0.605l0.708-2.91l4.599-0.149l-0.643,2.738
	c-0.058,0.471-0.431,1.222-0.835,1.276c-0.184,0.076-0.546,0.127-0.906,0.139c0.047,0.106,0.059,0.308,0.015,0.459
	c1.65-0.154,2.692-0.168,4.051-0.131c-0.058-0.241-0.037-0.298-0.015-0.459c-0.361-0.033-0.976,0.064-1.097-0.356
	c-0.024-0.249,0.024-0.462,0.104-0.801l1.478-6.098c0.041-0.543,0.56-1.343,1.018-1.335c0.13-0.031,0.303-0.059,0.477-0.073
	c-0.057-0.242-0.036-0.296-0.015-0.458c-0.636,0.06-1.467,0.122-1.819,0.129c-0.61,0.018-1.252,0.016-1.987-0.005
	c0.048,0.108,0.061,0.304,0.016,0.458c0.362,0.033,0.977-0.065,1.098,0.356c0.026,0.231-0.021,0.474-0.104,0.8l-0.684,2.801
	l-4.613,0.149l0.619-2.628c0.057-0.471,0.43-1.222,0.835-1.276c0.184-0.077,0.545-0.127,0.905-0.14
	c-0.058-0.242-0.037-0.295-0.015-0.457c-1.651,0.154-2.693,0.167-4.052,0.131c0.047,0.108,0.06,0.304,0.016,0.458
	c0.404-0.032,1.316,0.14,1.103,0.551c-0.005,0.117-0.051,0.364-0.109,0.606L114.338,267.263 M123.523,266.356
	c0.087,0.686,0.125,1.297,1.08,1.987c1.15,0.626,2.807,0.677,4.383-0.971c0.996-1.233,1.619-2.818,0.523-4.474
	c-1.281-1.289-3.119-1.304-4.925,0.521C123.844,264.265,123.465,265.354,123.523,266.356 M127.249,262.452
	c0.537-0.109,1.411,0.355,1.527,0.908c0.254,1.033,0.256,2.458-1.1,4.221c-0.911,0.777-1.557,1.023-2.626,0.161
	c-0.671-1.124-0.418-2.321,0.409-3.976C126.041,262.741,126.628,262.516,127.249,262.452 M136.663,265.705
	c-1.098,1.165-2.605,2.354-3.715,1.287c-0.596-0.831-0.404-1.761-0.045-2.833c0.144-0.374,0.341-0.756,0.524-1.055
	c0.293-0.449,0.437-0.69,0.943-1.034c0.556-0.294,1.097-0.511,1.607,0.291c0.16,0.186-0.113,0.757,0.367,0.947
	c-0.011,0.021,0.83,0.022,0.702-0.355c0.053-0.468-0.131-1.334-0.843-1.446c-1.162-0.218-2.303-0.163-3.813,1.705
	c-1.01,1.422-1.483,2.699-0.458,4.285c0.866,0.963,2.11,0.761,2.988,0.27c0.49-0.238,1.268-0.883,1.98-1.82
	C136.802,265.924,136.695,265.825,136.663,265.705 M142.621,267.225c0.844-0.234,1.564-0.317,2.373-0.32
	c-0.075-0.181-0.084-0.315-0.012-0.434c-0.318,0.038-1.122,0.017-0.867-0.331c0.229-0.669,0.55-1.498,0.824-2.246l3.192-0.432
	c0.106,0.76,0.64,1.51,0.319,2.363c-0.209,0.153-0.451,0.185-0.824,0.274c0.144,0.156,0.143,0.3,0.114,0.433
	c1.182-0.279,2.317-0.406,3.462-0.496c-0.093-0.237-0.06-0.283-0.016-0.446c-0.433,0.105-1.17-0.017-1.175-0.37
	c-0.739-2.714-1.479-5.547-2.22-8.32c-0.479,0.171-0.82,0.199-1.25,0.154l0.148,0.693l-2.576,6.668
	c-0.183,0.473-0.371,0.943-0.521,1.264c-0.249,0.54-0.444,0.789-0.75,0.989c-0.109,0.069-0.22,0.109-0.338,0.138
	C142.646,266.969,142.643,267.083,142.621,267.225 M145.172,263.288l1.776-4.682l1.038,4.302L145.172,263.288 M153.435,257.229
	l-0.832,6.241c-0.087,0.551-0.165,1.029-0.14,1.521c-0.069,1.014,0.952,0.962,1.334,0.719c0.344-0.134,1.027-0.682,1.646-1.43
	c-0.085-0.049-0.154-0.125-0.213-0.218c-0.372,0.364-0.715,0.702-1.097,0.862c-0.28,0.217-0.643-0.104-0.564-0.391
	c-0.019-0.227,0.034-0.73,0.114-1.242l0.902-6.751c0.056-0.545,0.35-1.938-0.648-1.536c-0.344,0.177-0.444,0.205-0.846,0.584
	c-0.266,0.259-0.639,0.68-0.983,1.12c0.107,0.092,0.158,0.179,0.188,0.267c0.382-0.429,0.822-0.967,1.193-0.869
	C153.586,256.396,153.488,256.668,153.435,257.229 M159.443,263.491c-0.57,0.571-1.354,1.163-1.464,0.529
	c-0.036-0.268-0.031-0.606,0.013-1.03l0.427-4.114l1.386-0.242c-0.092-0.205-0.065-0.236-0.068-0.385l-1.258,0.221l0.182-1.889
	l-0.396,0.069c-0.173,0.7-0.302,1.327-1.281,1.97c-0.232,0.137-0.517,0.258-0.81,0.341c0.059,0.079,0.076,0.194,0.066,0.298
	l1.259-0.221l-0.482,3.701c-0.057,0.432-0.101,0.864-0.122,1.13c-0.029,0.662-0.066,0.687,0.203,1.055
	c0.94,0.479,1.463-0.098,2.578-1.191C159.579,263.685,159.458,263.571,159.443,263.491 M165.813,261.548
	c-1.225,1.325-2.535,2.427-3.777,1.4c-0.346-0.42-0.411-0.971-0.393-1.51c0.604-0.154,1.193-0.372,1.654-0.604
	c0.461-0.233,0.794-0.48,1.049-0.71c0.971-0.972,1.385-1.877,0.438-2.785c-0.954-0.479-2.885,0.581-3.524,1.968
	c-0.665,1.202-1.038,2.55-0.414,3.937c1.04,1.474,1.928,1,3.021,0.581c0.603-0.274,1.435-0.957,2.209-2.161
	C165.983,261.636,165.894,261.603,165.813,261.548 M161.653,261.092c0.025-0.497,0.107-0.993,0.229-1.408
	c0.204-0.629,0.389-1.054,0.906-1.583c0.513-0.538,1.593-0.719,1.523,0.528c-0.032,0.478-0.225,0.909-0.697,1.38
	C163.172,260.464,162.415,260.854,161.653,261.092 M168.056,262.974c0.35-0.047,0.686-0.068,1.051-0.072l-0.052-2.744l0.173-0.094
	c0.136-0.59,0.312-1.171,0.481-1.604c0.263-0.633,0.389-0.841,0.736-1.32c0.592-0.718,0.864,0.18,1.377-0.437
	c0.09-0.025-0.064-1.36-0.697-0.986c-0.397,0.091-0.621,0.394-0.902,0.769c-0.136,0.184-0.297,0.411-0.502,0.92
	c-0.205,0.508-0.454,1.297-0.65,2.096l0.015-1.396c-0.043-0.685,0.261-1.814-0.599-1.812c-0.375,0.135-0.394,0.163-0.795,0.554
	c-0.256,0.262-0.648,0.701-1.023,1.152c0.087,0.047,0.158,0.096,0.232,0.176c0.465-0.479,1.11-1.254,1.189-0.48
	c0.021,0.146,0.031,0.412,0.027,0.672L168.056,262.974 M176.789,259.67c-0.567,0.618-1.428,1.646-1.619,0.611
	c-0.037-0.206-0.021-0.73,0.018-1.263l0.137-2.614c0.004-0.542,0.168-1.734-0.55-1.552c-0.428,0.167-0.589,0.272-1.023,0.735
	c-0.244,0.275-0.579,0.716-0.885,1.173c0.117,0.087,0.171,0.168,0.208,0.252c0.175-0.24,0.363-0.471,0.499-0.614
	c0.344-0.254,0.506-0.677,0.673-0.1c0.015,0.095,0.004,0.497-0.016,0.894l-0.106,2.088c-0.049,0.544-0.093,1.006-0.02,1.555
	c-0.08,0.811,0.985,0.934,1.372,0.587c0.328-0.158,0.968-0.743,1.541-1.551C176.926,259.827,176.853,259.756,176.789,259.67
	 M173.889,252.562c0.148,0.723,1.271,0.729,1.377-0.097c0.193-0.653-1.224-1.216-1.395-0.132
	C173.865,252.407,173.871,252.486,173.889,252.562"/>
<rect x="75.017" y="265.012" fill-rule="evenodd" fill="#FFFFFF" width="2.885" height="3.131"/>
<g>
</g>
<g>
</g>
<g>
</g>
<g>
</g>
<g>
</g>
<g>
</g>
<g>
</g>
<g>
</g>
<g>
</g>
<g>
</g>
<g>
</g>
<g>
</g>
</svg>
